<?xml version="1.0" encoding="iso-8859-1"?>
<!-- Uploaded to: SVG Repo, www.svgrepo.com, Generator: SVG Repo Mixer Tools -->
<svg height="800px" width="800px" version="1.1" id="Layer_1" xmlns="http://www.w3.org/2000/svg" xmlns:xlink="http://www.w3.org/1999/xlink" 
	 viewBox="0 0 512 512" xml:space="preserve">
<circle style="fill:#6B7F9E;" cx="256" cy="256" r="256"/>
<g>
	<polygon style="fill:#FF7069;" points="121.229,143.318 360.267,69.687 391.955,172.244 152.916,246.007 174.611,183.026 	"/>
	<polygon style="fill:#FF7069;" points="391.955,368.551 152.916,442.313 121.229,339.624 360.267,265.993 338.572,328.842 	"/>
</g>
<polygon style="fill:#F7635B;" points="121.229,339.624 225.759,223.523 387.484,172.244 281.245,290.317 "/>
<g>
	<path style="fill:#FFFFFF;" d="M194.597,141.346l15.515-4.733c4.865-1.446,8.678-2.235,11.439-2.235
		c2.761,0,5.259,0.92,7.495,2.761c2.235,1.841,4.208,5.391,5.785,10.519c1.052,3.55,1.315,6.048,0.657,7.758
		c-0.657,1.709-2.498,3.419-5.522,5.128c3.813-0.263,6.706,0.263,8.546,1.841c1.841,1.446,3.419,4.208,4.602,8.152l1.709,5.522
		c1.183,4.076,1.709,7.232,1.315,9.467c-0.263,2.235-1.315,4.076-3.156,5.391c-1.841,1.315-5.785,3.024-12.097,4.865l-18.013,5.522
		l-18.408-59.825L194.597,141.346z M213.399,146.737l4.076,13.28c0.657-0.263,1.183-0.394,1.578-0.526
		c1.446-0.394,2.367-1.183,2.498-1.972c0.131-0.92-0.263-3.156-1.315-6.706c-0.526-1.841-1.183-3.156-1.709-3.813
		c-0.526-0.657-1.183-0.92-1.709-1.052c-0.657,0-1.709,0.131-3.287,0.657L213.399,146.737z M220.368,169.352l5.128,16.83
		c2.104-0.789,3.419-1.446,3.813-2.235s0.263-2.367-0.526-4.865l-1.709-5.654c-0.789-2.63-1.578-4.076-2.235-4.47
		C224.181,168.563,222.603,168.694,220.368,169.352z M236.409,128.46l25.902-8.021l3.682,11.965l-10.387,3.156l3.55,11.439
		l9.73-3.024l3.55,11.308l-9.73,3.024l4.076,13.148l11.439-3.55l3.682,11.965l-27.086,8.284l-18.408-59.825V128.46z
		 M306.358,126.882l-14.463,4.47l-1.315-4.47c-0.657-2.104-1.183-3.287-1.709-3.813c-0.526-0.394-1.183-0.526-2.104-0.263
		c-0.92,0.263-1.578,0.92-1.709,1.841c-0.263,0.92-0.131,2.104,0.394,3.682c0.657,1.972,1.315,3.419,2.235,4.208
		c0.789,0.789,2.63,1.578,5.522,2.367c8.152,1.972,13.543,4.076,16.173,6.18s4.865,6.048,6.574,11.965
		c1.315,4.208,1.709,7.626,1.446,9.861c-0.394,2.367-1.709,4.602-4.207,6.837c-2.367,2.235-5.522,3.945-9.335,5.128
		c-4.207,1.315-7.889,1.578-11.439,0.92c-3.419-0.657-5.917-2.104-7.626-4.208c-1.709-2.104-3.156-5.522-4.602-9.993l-1.183-3.945
		l14.463-4.47l2.235,7.232c0.657,2.235,1.315,3.682,1.972,4.207c0.657,0.526,1.446,0.657,2.498,0.263
		c1.052-0.263,1.709-0.92,1.972-1.972c0.263-0.92,0.131-2.235-0.394-3.813c-1.052-3.55-2.235-5.654-3.55-6.443
		s-4.339-1.841-8.941-3.156c-4.602-1.315-7.758-2.498-9.335-3.287s-3.156-2.104-4.602-3.813c-1.446-1.841-2.63-4.339-3.682-7.495
		c-1.446-4.602-1.841-8.152-1.315-10.65c0.526-2.498,1.841-4.733,4.076-6.706s5.259-3.55,8.941-4.733
		c4.076-1.183,7.626-1.578,10.913-1.183s5.654,1.446,7.1,3.156c1.578,1.709,3.024,4.865,4.47,9.73l0.789,2.367H306.358z
		 M338.309,97.167l3.682,11.965l-9.204,2.761l14.726,47.86l-15.647,4.733l-14.726-47.86l-9.204,2.893l-3.682-11.965l34.054-10.519
		V97.167z"/>
	<path style="fill:#FFFFFF;" d="M195.649,377.886c1.841,6.048,3.024,10.256,3.55,12.885c0.526,2.63,0.263,5.128-0.526,7.626
		s-2.367,4.733-4.602,6.574c-2.235,1.841-4.996,3.287-8.284,4.339c-3.156,0.92-6.18,1.315-9.072,1.052s-5.391-1.183-7.626-2.761
		c-2.235-1.578-3.813-3.682-4.865-6.048c-1.052-2.367-2.498-6.706-4.47-12.754l-3.156-10.256c-1.841-6.048-3.024-10.256-3.55-12.885
		c-0.526-2.63-0.263-5.128,0.526-7.626s2.367-4.733,4.602-6.574c2.235-1.841,4.996-3.419,8.284-4.339
		c3.156-0.92,6.18-1.315,9.072-1.052s5.391,1.183,7.626,2.761c2.235,1.578,3.813,3.682,4.865,6.048
		c1.052,2.367,2.498,6.706,4.47,12.754L195.649,377.886z M173.954,363.028c-0.789-2.761-1.578-4.47-2.104-5.259
		c-0.526-0.657-1.315-0.92-2.235-0.526c-0.789,0.263-1.315,0.789-1.578,1.446c-0.263,0.789,0.131,2.63,1.052,5.785l8.546,28.006
		c1.052,3.419,1.841,5.522,2.367,6.311s1.315,0.92,2.367,0.657c1.052-0.263,1.578-1.052,1.578-1.972
		c0-1.052-0.526-3.287-1.578-6.837l-8.415-27.48V363.028z M190.652,340.939l26.297-8.152l3.682,11.965l-10.782,3.287l3.55,11.439
		l9.598-2.893l3.55,11.308l-9.598,2.893l7.758,25.114l-15.647,4.733l-18.408-59.825V340.939z M220.762,331.735l26.297-8.152
		l3.682,11.965l-10.782,3.287l3.55,11.439l9.598-2.893l3.55,11.308l-9.598,2.893l7.758,25.113l-15.647,4.733l-18.408-59.825V331.735
		z M250.872,322.4l25.902-8.021l3.682,11.965l-10.387,3.156l3.55,11.439l9.73-3.024l3.55,11.308l-9.73,3.024l4.076,13.148
		l11.439-3.55l3.682,11.965l-27.086,8.284l-18.408-59.825V322.4z M282.297,312.67l11.045-3.419c7.363-2.235,12.36-3.55,15.121-3.682
		c2.761-0.263,5.391,0.526,7.758,2.367c2.367,1.841,4.339,5.259,5.917,10.387c1.446,4.602,1.841,8.021,1.183,9.861
		c-0.657,1.972-2.63,3.682-5.917,4.996c3.287-0.132,5.654,0.263,7.232,1.183c1.446,0.92,2.498,1.972,3.024,2.893
		c0.657,1.052,1.578,3.945,3.156,8.678l4.865,15.778l-14.463,4.47l-6.18-19.986c-0.92-3.156-1.841-5.128-2.63-5.785
		c-0.789-0.657-2.104-0.657-4.339,0l8.284,27.086l-15.647,4.733l-18.408-59.825V312.67z M301.099,318.061l4.076,13.28
		c1.709-0.526,2.893-1.183,3.419-1.841c0.526-0.657,0.394-2.367-0.394-4.996l-1.052-3.287c-0.526-1.972-1.315-3.024-2.104-3.419
		C304.255,317.403,302.808,317.535,301.099,318.061z"/>
</g>
<g>
	<polygon style="fill:#FFE356;" points="120.571,166.722 130.432,191.704 157.124,189.995 136.481,206.956 146.474,231.938 
		123.858,217.475 103.215,234.7 109.921,208.666 87.174,194.465 113.997,192.756 	"/>
	<polygon style="fill:#FFE356;" points="370.26,284.401 391.034,301.362 413.518,286.636 403.92,311.749 424.694,328.448 
		398.003,327.133 388.405,352.115 381.568,326.213 354.745,324.898 377.229,310.303 	"/>
</g>
</svg>